<svg width="100" height="18" viewBox="0 0 100 18" fill="none" xmlns="http://www.w3.org/2000/svg">
<g clip-path="url(#clip0_30_873)">
<path d="M30.1008 0.0106791C30.0874 0.0240102 29.7446 0.0506722 29.3346 0.0706686C28.4677 0.117327 27.6545 0.257302 26.8279 0.490595C25.0269 1.0105 23.7634 2.17029 23.2795 3.75668C23.125 4.24326 23.1116 5.33641 23.246 5.81633C23.5014 6.71617 24.207 7.70266 25.0269 8.27589C26.0416 9.00243 27.1774 9.40902 30.1008 10.1222C32.8024 10.7755 33.6492 11.0754 34.2272 11.582C35.0067 12.2619 34.7111 13.3817 33.6358 13.8549C32.6545 14.2882 30.6049 14.3415 29.3818 13.9749C28.1855 13.6083 27.5404 13.0017 27.3252 12.0286L27.285 11.8486H25.0874H22.8965L22.9369 12.3618C23.0982 14.7082 25.3562 16.4478 28.9718 17.0144C29.9328 17.1677 32.3185 17.2009 33.3266 17.0809C35.4099 16.8277 36.8616 16.2278 37.9099 15.1881C38.8642 14.2348 39.2405 13.2217 39.1599 11.7819C39.0592 9.92894 38.1654 8.68248 36.2501 7.72932C35.2083 7.20941 34.1196 6.88947 31.754 6.41622C29.254 5.90964 27.883 5.36307 27.5941 4.74984C27.1774 3.88333 27.8898 3.15013 29.3818 2.91683C30.0941 2.80352 32.0631 2.86351 32.6613 3.01682C33.676 3.28343 34.3481 3.75668 34.6572 4.42323L34.8252 4.78317L37.0161 4.76985L39.2137 4.74984L39.1935 4.48322C39.1331 3.73669 38.7567 2.93683 38.1586 2.28362C37.09 1.13048 35.215 0.390612 32.6949 0.123993C31.9959 0.0506722 30.1478 -0.0293138 30.1008 0.0106791Z" fill="white"/>
<path d="M49.6102 0.057353C47.7621 0.217324 46.3172 0.657247 45.3629 1.35046C44.8588 1.71706 44.2741 2.37695 44.0053 2.88352C43.6357 3.58341 43.5214 4.04331 43.5214 4.81651C43.5214 6.53621 44.4891 7.91597 46.3373 8.83581C47.1371 9.23573 48.2661 9.58235 50.5443 10.1422C53.2594 10.8088 53.9718 11.0554 54.5631 11.5553C55.2082 12.1086 55.1949 12.9217 54.5228 13.5216C53.5953 14.3548 50.7325 14.4682 49.0859 13.7483C48.2929 13.4017 47.6949 12.8218 47.4663 12.1752L47.3454 11.8486H45.1814H43.0107V12.2752C43.0107 14.0149 44.6774 15.7012 47.1976 16.5211C47.9301 16.7611 49.1935 17.0144 50.0671 17.1077C51.102 17.2143 53.3938 17.1476 54.3011 16.9943C56.2029 16.6545 57.4797 16.0546 58.4274 15.0413C59.2472 14.1616 59.5967 13.1217 59.5228 11.7819C59.3682 8.97578 57.3656 7.43605 52.6545 6.52289C50.719 6.14961 49.2607 5.72302 48.629 5.35641C47.7688 4.85651 47.6008 4.1433 48.2056 3.54341C48.7566 3.01017 49.6908 2.8102 51.465 2.87019C52.7082 2.91018 53.2056 3.0035 53.8844 3.32344C54.5026 3.61672 54.8991 4.02999 55.1075 4.59656L55.1747 4.78319H57.3588H59.543V4.49657C59.5363 3.26345 58.4744 1.89036 56.9287 1.11717C56.0685 0.690575 54.5497 0.283979 53.2929 0.15067C53.051 0.124008 52.7956 0.0906805 52.7217 0.0773495C52.453 0.01736 50.2217 0.0106946 49.6102 0.057353Z" fill="white"/>
<path d="M6.97581 2.49689C6.41801 3.63004 5.63844 5.20975 5.24194 6.01628C4.84543 6.8228 4.05914 8.40919 3.49463 9.54899C2.93011 10.6821 2.25135 12.0619 1.98252 12.6151C1.7137 13.1617 1.15591 14.2815 0.745968 15.1013C0.336021 15.9212 0 16.6144 0 16.6545C0 16.6878 0.739247 16.7144 1.85484 16.7144H3.70296L4.3414 15.4146L4.97311 14.1148H9.36827L13.7567 14.1215L14.3885 15.4146L15.0202 16.7144H17.695H20.3628L20.1546 16.2945C20.0337 16.0678 19.4018 14.8013 18.7499 13.4816C18.0914 12.1619 16.3575 8.68914 14.8992 5.763L12.2379 0.450592H10.1143H7.99059L6.97581 2.49689ZM10.1613 6.76281C10.5645 7.60266 11.0282 8.54917 11.1895 8.88245C11.3441 9.20905 11.6734 9.88226 11.9153 10.3622L12.3589 11.2487H9.37499H6.39112L7.2379 9.52899C7.70161 8.58915 8.36021 7.23607 8.70968 6.52952C9.05241 5.82964 9.35484 5.24975 9.37499 5.24975C9.39516 5.24975 9.75135 5.92963 10.1613 6.76281Z" fill="white"/>
<path d="M64.7849 8.5825V16.7144H72.5469H80.309V15.2813V13.8482H74.8656H69.4219L69.4421 11.5286L69.4556 9.21572L74.012 9.19572L78.5618 9.18239V7.7493V6.31622H73.9985H69.4354L69.4489 4.82983L69.4556 3.35008L74.7513 3.33009L80.0403 3.31675V1.88368V0.450592H72.4125H64.7849V8.5825Z" fill="white"/>
<path d="M83.4678 1.88368V3.31675H86.324H89.1801V10.0156V16.7144H91.5323H93.8845V10.0156V3.31675L96.4853 3.30343L99.0793 3.28342L99.5431 1.91701C99.7918 1.17047 100 0.530579 100 0.503917C100 0.470589 96.2836 0.450592 91.7338 0.450592H83.4678V1.88368Z" fill="white"/>
</g>
<defs>
<clipPath id="clip0_30_873">
<rect width="100" height="17.1598" fill="white"/>
</clipPath>
</defs>
</svg>
